<svg width="1022" height="910" viewBox="0 0 1022 910" fill="none" xmlns="http://www.w3.org/2000/svg">
<path d="M538.49 226.501C548.487 235.208 554.304 245.996 556.545 259.043C556.868 265.546 556.349 271.644 554.99 278.006C556.713 278.335 556.713 278.335 558.472 278.67C570.132 281.635 585.607 288.8 594.499 296.936C596.357 298.448 596.357 298.448 598.78 298.222C602.109 297.161 604.764 295.575 607.739 293.744C624.899 283.563 645.783 280.54 665.237 285.418C687.796 291.765 707.055 305.748 718.812 326.258C726.497 340.4 729.273 353.406 728.886 369.509C728.858 370.686 728.83 371.862 728.801 373.074C727.853 394.64 716.913 414.5 701.623 429.362C692.253 437.647 676.312 448.63 663.054 448.241C663.132 453.774 663.219 459.307 663.313 464.839C663.343 466.713 663.372 468.587 663.398 470.461C663.532 479.921 663.73 489.363 664.485 498.797C664.534 499.479 664.584 500.161 664.635 500.863C665.286 508.087 667.88 513.142 672.803 518.35C678.056 522.728 683.931 523.987 690.419 525.544C701.506 528.293 710.007 533.938 716.16 543.598C723.772 556.837 726.138 571.196 722.214 586.184C718.669 597.552 712.156 608.306 701.445 614.022C692.865 617.785 685.242 619.253 675.948 619.29C674.506 619.306 674.506 619.306 673.035 619.323C669.976 619.357 666.916 619.379 663.857 619.401C659.84 619.437 655.823 619.478 651.805 619.521C650.836 619.531 649.866 619.54 648.867 619.55C643.302 619.615 637.769 619.804 632.214 620.156C624.975 620.523 617.722 620.586 610.476 620.706C607.619 620.755 604.762 620.809 601.905 620.864C591.909 621.043 581.96 621.085 571.969 620.649C571.987 621.438 572.005 622.226 572.024 623.039C572.236 636.929 566.928 650.273 557.486 660.43C545.448 672.382 533.217 679.435 515.877 679.387C499.026 679.028 486.089 674.383 473.995 662.21C464.953 652.096 458.147 638.156 458.812 624.339C458.183 624.373 457.554 624.407 456.906 624.442C438.684 625.41 420.475 625.915 402.232 626.247C398.318 626.321 394.405 626.397 390.491 626.472C387.982 626.521 385.472 626.569 382.963 626.616C374.777 626.773 366.594 626.966 358.41 627.203C342.055 627.596 329.417 626.167 317.138 614.482C307.446 603.799 304.342 589.97 304.793 575.967C305.553 562.908 311.364 551.976 320.211 542.498C326.634 536.823 335.683 533.298 343.923 531.312C350.801 529.632 354.937 526.869 358.675 520.802C361.071 516.532 362.162 512.886 362.283 507.991C362.307 507.1 362.332 506.209 362.357 505.291C362.379 504.321 362.401 503.351 362.423 502.352C362.45 501.324 362.477 500.296 362.505 499.237C362.563 497.003 362.619 494.768 362.673 492.534C362.76 488.985 362.853 485.436 362.949 481.887C363.22 471.796 363.48 461.704 363.731 451.612C363.885 445.437 364.048 439.262 364.218 433.087C364.281 430.745 364.339 428.403 364.394 426.061C364.776 409.71 365.425 393.864 370.665 378.216C370.951 377.343 371.238 376.47 371.533 375.57C379.964 350.507 393.098 329.301 411.968 310.834C413.153 309.607 413.153 309.607 414.361 308.356C427.223 295.445 444.077 285.992 460.913 279.253C461.573 279.272 462.232 279.291 462.912 279.311C462.611 278.312 462.31 277.313 462 276.283C459.113 262.784 461.844 250.12 468.739 238.339C476.327 227.302 486.009 220.687 498.667 216.663C513.307 214.779 526.479 217.939 538.49 226.501Z" fill="#A6AD73"/>
<path d="M538.49 232.501C548.487 241.208 554.304 251.996 556.545 265.043C556.868 271.546 556.349 277.644 554.99 284.006C556.713 284.335 556.713 284.335 558.472 284.67C570.132 287.635 585.607 294.8 594.499 302.936C596.357 304.448 596.357 304.448 598.78 304.222C602.109 303.161 604.764 301.575 607.739 299.744C624.899 289.563 645.783 286.54 665.237 291.418C687.796 297.765 707.055 311.748 718.812 332.258C726.497 346.4 729.273 359.406 728.886 375.509C728.858 376.686 728.83 377.862 728.801 379.074C727.853 400.64 716.913 420.5 701.623 435.362C692.253 443.647 676.312 454.63 663.054 454.241C663.132 459.774 663.219 465.307 663.313 470.839C663.343 472.713 663.372 474.587 663.398 476.461C663.532 485.921 663.73 495.363 664.485 504.797C664.534 505.479 664.584 506.161 664.635 506.863C665.286 514.087 667.88 519.142 672.803 524.35C678.056 528.728 683.931 529.987 690.419 531.544C701.506 534.293 710.007 539.938 716.16 549.598C723.772 562.837 726.138 577.196 722.214 592.184C718.669 603.552 712.156 614.306 701.445 620.022C692.865 623.785 685.242 625.253 675.948 625.29C674.506 625.306 674.506 625.306 673.035 625.323C669.976 625.357 666.916 625.379 663.857 625.401C659.84 625.437 655.823 625.478 651.805 625.521C650.836 625.531 649.866 625.54 648.867 625.55C643.302 625.615 637.769 625.804 632.214 626.156C624.975 626.523 617.722 626.586 610.476 626.706C607.619 626.755 604.762 626.809 601.905 626.864C591.909 627.043 581.96 627.085 571.969 626.649C571.987 627.438 572.005 628.226 572.024 629.039C572.236 642.929 566.928 656.273 557.486 666.43C545.448 678.382 533.217 685.435 515.877 685.387C499.026 685.028 486.089 680.383 473.995 668.21C464.953 658.096 458.147 644.156 458.812 630.339C458.183 630.373 457.554 630.407 456.906 630.442C438.684 631.41 420.475 631.915 402.232 632.247C398.318 632.321 394.405 632.397 390.491 632.472C387.982 632.521 385.472 632.569 382.963 632.616C374.777 632.773 366.594 632.966 358.41 633.203C342.055 633.596 329.417 632.167 317.138 620.482C307.446 609.799 304.342 595.97 304.793 581.967C305.553 568.908 311.364 557.976 320.211 548.498C326.634 542.823 335.683 539.298 343.923 537.312C350.801 535.632 354.937 532.869 358.675 526.802C361.071 522.532 362.162 518.886 362.283 513.991C362.307 513.1 362.332 512.209 362.357 511.291C362.379 510.321 362.401 509.351 362.423 508.352C362.45 507.324 362.477 506.296 362.505 505.237C362.563 503.003 362.619 500.768 362.673 498.534C362.76 494.985 362.853 491.436 362.949 487.887C363.22 477.796 363.48 467.704 363.731 457.612C363.885 451.437 364.048 445.262 364.218 439.087C364.281 436.745 364.339 434.403 364.394 432.061C364.776 415.71 365.425 399.864 370.665 384.216C370.951 383.343 371.238 382.47 371.533 381.57C379.964 356.507 393.098 335.301 411.968 316.834C413.153 315.607 413.153 315.607 414.361 314.356C427.223 301.445 444.077 291.992 460.913 285.253C461.573 285.272 462.232 285.291 462.912 285.311C462.611 284.312 462.31 283.313 462 282.283C459.113 268.784 461.844 256.12 468.739 244.339C476.327 233.302 486.009 226.687 498.667 222.663C513.307 220.779 526.479 223.939 538.49 232.501ZM478.309 243.947C476.692 246.132 475.269 248.25 473.932 250.619C473.391 251.565 473.391 251.565 472.839 252.53C469.822 258.209 468.963 262.967 468.944 269.356C468.921 270.662 468.921 270.662 468.898 271.994C468.873 278.464 469.601 284.435 471.762 290.573C470.927 290.638 470.092 290.704 469.231 290.772C465.146 291.502 461.712 293.007 458.007 294.797C457.296 295.136 456.584 295.475 455.851 295.824C445.041 301.022 435.325 306.581 426.049 314.245C425.542 314.659 425.034 315.072 424.511 315.498C417.062 321.591 410.387 328.04 404.414 335.621C404.005 336.139 403.596 336.658 403.174 337.192C383.671 362.256 372.176 393.324 371.595 425.074C371.548 427.006 371.548 427.006 371.5 428.978C371.235 440.583 371.168 452.191 371.08 463.799C371.057 466.942 371.031 470.085 371.006 473.228C370.997 474.247 370.989 475.267 370.98 476.317C370.964 478.33 370.947 480.343 370.929 482.356C370.893 486.671 370.858 490.986 370.839 495.3C370.82 499.02 370.77 502.739 370.713 506.458C370.713 507.46 370.713 508.462 370.714 509.495C370.493 519.991 367.105 529.957 359.49 537.393C356.013 540.285 352.791 542.081 348.552 543.638C347.486 544.034 346.419 544.431 345.321 544.84C342.743 545.718 340.211 546.418 337.572 547.068C328.857 549.635 322.617 555.828 317.965 563.403C312.125 575.422 310.492 589.301 314.511 602.229C318.388 611.459 325.053 619.026 333.954 623.682C337.757 625.075 341.376 625.041 345.378 625.133C346.222 625.154 347.066 625.176 347.936 625.198C357.144 625.402 366.338 625.251 375.545 625.048C377.379 625.011 379.213 624.974 381.047 624.937C398.64 624.575 416.228 624.071 433.816 623.547C461.789 622.714 489.762 621.967 517.743 621.412C533.211 621.105 548.68 620.764 564.148 620.418C565.329 620.391 566.51 620.365 567.727 620.338C584.242 619.968 600.758 619.581 617.272 619.161C624.299 618.983 631.326 618.811 638.353 618.653C645.005 618.504 651.655 618.338 658.306 618.16C660.779 618.096 663.252 618.039 665.725 617.987C669.146 617.915 672.567 617.822 675.988 617.723C677.47 617.699 677.47 617.699 678.981 617.675C688.65 617.353 697.548 615.118 704.846 608.503C707.866 605.22 709.925 601.726 711.875 597.732C712.292 596.933 712.708 596.134 713.138 595.311C717.523 585.889 718.217 574.84 715.213 564.878C711.123 554.512 704.543 545.727 694.791 540.027C691.704 538.79 688.568 538.221 685.312 537.554C675.999 535.623 668.363 531.58 662.662 523.77C655.538 512.163 655.831 499.413 655.862 486.295C655.848 483.565 655.828 480.836 655.806 478.107C655.794 476.425 655.788 474.743 655.79 473.062C655.781 467.351 655.463 461.698 654.998 456.006C654.306 455.957 653.614 455.907 652.901 455.857C627.716 453.938 608.623 448.559 589.7 431.085C589.102 430.549 588.504 430.013 587.887 429.461C573.963 415.982 566.34 394.912 565.988 375.898C565.991 364.393 566.976 354.276 571.255 343.507C571.66 342.465 572.064 341.424 572.481 340.35C576.776 330.116 582.756 321.629 590.628 313.839C592.394 312.246 592.394 312.246 592.242 310.107C570.505 295.571 570.505 295.571 545.847 288.74C546.21 287.616 546.573 286.492 546.947 285.333C549.841 273.616 550.114 261.324 543.961 250.669C537.557 241.405 529.371 234.29 518.528 230.916C515.568 230.415 512.668 230.265 509.669 230.219C508.483 230.198 508.483 230.198 507.273 230.176C495.509 230.179 486.108 235.052 478.309 243.947Z" fill="#737E3D"/>
<path d="M538.49 232.501C548.487 241.208 554.304 251.996 556.545 265.043C556.868 271.546 556.349 277.644 554.99 284.006C556.713 284.335 556.713 284.335 558.472 284.67C572.787 288.309 588.003 297.061 599.356 306.314C597.109 308.311 597.109 308.311 594.241 310.166C590.7 309.708 588.087 308.521 585.066 306.673C584.265 306.197 583.464 305.72 582.639 305.23C581.784 304.72 580.93 304.21 580.049 303.685C569.132 297.331 557.754 292.876 545.847 288.74C545.973 287.914 545.973 287.914 546.102 287.07C548.186 272.933 549.485 260.248 541.058 247.836C534.965 240.118 526.58 233.042 516.503 231.637C502.99 230.516 493.368 231.95 482.491 240.588C478.774 244.118 476.23 248.093 473.873 252.618C473.302 253.651 472.73 254.684 472.141 255.749C470.096 260.236 470.115 264.713 470.063 269.576C470.034 270.448 470.006 271.32 469.976 272.218C469.874 277.096 470.361 280.907 471.908 285.575C471.949 288.452 471.949 288.452 471.762 290.573C470.855 290.875 469.949 291.177 469.015 291.489C444.149 300.036 421.773 314.886 405.414 335.65C405.005 336.169 404.595 336.687 404.174 337.221C384.671 362.286 373.176 393.353 372.594 425.103C372.548 427.035 372.548 427.035 372.5 429.007C372.234 440.612 372.167 452.22 372.08 463.828C372.056 466.971 372.031 470.114 372.005 473.257C371.997 474.277 371.988 475.296 371.98 476.346C371.963 478.359 371.946 480.372 371.929 482.386C371.892 486.7 371.858 491.015 371.838 495.33C371.82 499.049 371.769 502.768 371.712 506.487C371.712 507.489 371.713 508.492 371.713 509.524C371.451 522.017 366.629 531.493 357.787 540.031C351.947 544.315 344.412 546.351 337.479 548.128C329.054 550.62 323.538 556.073 319.001 563.398C315.498 570.503 313.753 576.886 313.582 584.819C313.563 585.691 313.544 586.562 313.524 587.461C313.511 598.473 316.57 607.328 324.063 615.514C330.729 621.752 336.309 623.925 345.407 624.133C346.251 624.155 347.095 624.176 347.965 624.199C357.173 624.402 366.367 624.251 375.574 624.049C377.408 624.012 379.242 623.975 381.077 623.938C398.669 623.576 416.257 623.071 433.845 622.547C461.819 621.715 489.792 620.967 517.772 620.413C533.241 620.105 548.709 619.765 564.177 619.418C565.358 619.392 566.539 619.366 567.756 619.338C584.272 618.969 600.787 618.581 617.301 618.162C624.328 617.984 631.355 617.811 638.383 617.654C645.034 617.505 651.684 617.338 658.335 617.16C660.808 617.097 663.281 617.039 665.754 616.988C669.176 616.915 672.596 616.822 676.018 616.724C677.499 616.7 677.499 616.7 679.01 616.675C688.045 616.375 697.184 614.462 704.075 608.258C706.969 605.051 708.962 601.558 710.875 597.702C711.293 596.902 711.711 596.102 712.142 595.278C716.52 585.853 717.218 574.811 714.213 564.849C710.945 556.547 706.516 549.812 699.432 544.345C697.979 543.219 697.979 543.219 696.497 542.07C692.965 539.979 689.279 539.369 685.283 538.553C678.409 537.137 673.288 534.839 667.826 530.414C667.195 529.939 666.564 529.464 665.914 528.974C658.629 522.555 655.745 511.808 655.047 502.407C654.823 496.94 654.962 491.489 655.12 486.023C655.169 483.997 655.217 481.97 655.266 479.944C655.468 471.64 655.732 463.338 656.027 455.036C658.016 454.764 660.005 454.492 662.054 454.212C662.256 457.427 662.454 460.643 662.647 463.859C662.708 464.87 662.77 465.882 662.833 466.924C663.185 473.002 663.453 479.076 663.622 485.162C663.661 486.503 663.701 487.843 663.741 489.184C663.814 491.786 663.877 494.388 663.929 496.991C664.231 507.422 665.457 516.803 673 524.563C678.144 528.441 683.507 530.115 689.742 531.493C701.162 534.064 709.867 539.719 716.16 549.598C723.772 562.837 726.138 577.196 722.214 592.184C718.669 603.552 712.156 614.306 701.445 620.022C692.865 623.785 685.242 625.253 675.948 625.29C674.506 625.306 674.506 625.306 673.035 625.323C669.976 625.357 666.916 625.379 663.857 625.401C659.84 625.437 655.823 625.478 651.805 625.521C650.836 625.531 649.866 625.54 648.867 625.55C643.302 625.615 637.769 625.804 632.214 626.156C624.975 626.523 617.722 626.586 610.476 626.706C607.619 626.755 604.762 626.809 601.905 626.864C591.909 627.043 581.96 627.085 571.969 626.649C571.987 627.438 572.005 628.226 572.024 629.039C572.236 642.929 566.928 656.273 557.486 666.43C545.448 678.382 533.217 685.435 515.877 685.387C499.026 685.028 486.089 680.383 473.995 668.21C464.953 658.096 458.147 644.156 458.812 630.339C458.183 630.373 457.554 630.407 456.906 630.442C438.684 631.41 420.475 631.915 402.232 632.247C398.318 632.321 394.405 632.397 390.491 632.472C387.982 632.521 385.472 632.569 382.963 632.616C374.777 632.773 366.594 632.966 358.41 633.203C342.055 633.596 329.417 632.167 317.138 620.482C307.446 609.799 304.342 595.97 304.793 581.967C305.553 568.908 311.364 557.976 320.211 548.498C326.634 542.823 335.683 539.298 343.923 537.312C350.801 535.632 354.937 532.869 358.675 526.802C361.071 522.532 362.162 518.886 362.283 513.991C362.307 513.1 362.332 512.209 362.357 511.291C362.379 510.321 362.401 509.351 362.423 508.352C362.45 507.324 362.477 506.296 362.505 505.237C362.563 503.003 362.619 500.768 362.673 498.534C362.76 494.985 362.853 491.436 362.949 487.887C363.22 477.796 363.48 467.704 363.731 457.612C363.885 451.437 364.048 445.262 364.218 439.087C364.281 436.745 364.339 434.403 364.394 432.061C364.776 415.71 365.425 399.864 370.665 384.216C370.951 383.343 371.238 382.47 371.533 381.57C379.964 356.507 393.098 335.301 411.968 316.834C413.153 315.607 413.153 315.607 414.361 314.356C427.223 301.445 444.077 291.992 460.913 285.253C461.573 285.272 462.232 285.291 462.912 285.311C462.611 284.312 462.31 283.313 462 282.283C459.113 268.784 461.844 256.12 468.739 244.339C476.327 233.302 486.009 226.687 498.667 222.663C513.307 220.779 526.479 223.939 538.49 232.501Z" fill="#5C6829"/>
<path d="M713.021 592.763C711.462 600.679 707.32 606.991 700.837 611.801C692.658 617.007 683.578 617.602 674.135 617.761C672.86 617.796 671.586 617.831 670.273 617.867C666.791 617.962 663.309 618.036 659.827 618.107C656.117 618.186 652.407 618.284 648.697 618.38C641.562 618.561 634.426 618.725 627.29 618.883C619.05 619.066 610.812 619.269 602.573 619.472C583.092 619.953 563.609 620.398 544.127 620.832C541.821 620.884 539.516 620.935 537.21 620.987C523.062 621.304 508.913 621.616 494.764 621.905C467.413 622.465 440.07 623.284 412.728 624.167C390.242 624.893 367.785 625.353 345.285 625.327C344.119 625.328 344.119 625.328 342.93 625.329C333.808 625.254 327.697 619.857 321.451 613.703C318.846 610.715 315.453 606.341 315.576 602.135C316.438 602.123 317.3 602.11 318.188 602.097C356.944 601.519 395.694 600.582 434.444 599.687C441.068 599.534 447.692 599.382 454.316 599.231C499.467 598.204 544.615 597.099 589.76 595.801C602.69 595.429 615.621 595.078 628.552 594.729C630.79 594.669 633.027 594.608 635.264 594.548C636.249 594.521 637.234 594.495 638.248 594.467C648.351 594.193 658.453 593.906 668.555 593.611C670.975 593.54 673.396 593.47 675.816 593.399C680.411 593.266 685.006 593.129 689.6 592.992C691.672 592.931 693.745 592.871 695.817 592.81C697.218 592.767 697.218 592.767 698.647 592.723C703.453 592.586 708.217 592.565 713.021 592.763Z" fill="#9CA466"/>
<path d="M846.375 685.625C847.241 685.749 848.108 685.873 849 686C851.873 689.911 853.25 694.315 854.75 698.875C857.026 705.593 859.69 711.987 862.815 718.353C865 722.822 865 722.822 865 725C865.763 725.227 866.526 725.454 867.312 725.688C870.301 726.751 872.97 727.934 875.812 729.312C882.67 732.496 889.828 734.42 897.088 736.447C899.753 737.218 902.377 738.098 905 739C905.125 741.375 905.125 741.375 905 744C902.427 746.573 900.467 746.758 896.938 747.625C888.129 750.036 880.106 753.837 872 758C871.082 758.442 870.164 758.884 869.219 759.34C860.553 765.824 857.57 783.007 854.615 792.965C853.8 795.663 852.909 798.333 852 801C850.35 801 848.7 801 847 801C846.792 800.475 846.585 799.951 846.371 799.41C845.255 796.604 844.128 793.802 843 791C842.743 790.357 842.485 789.714 842.22 789.051C840.763 785.418 839.279 781.8 837.742 778.199C836.654 775.643 835.735 773.174 834.883 770.52C832.947 765.252 830.877 762.231 825.891 759.629C817.566 755.808 808.741 753.073 799.883 750.789C797.121 750.033 794.573 749.261 792 748C791.188 745.375 791.188 745.375 791 743C795.703 739.822 800.829 738.111 806.125 736.188C813.141 733.591 819.71 730.885 826.137 727.031C828 726 828 726 830 726C830.264 725.189 830.264 725.189 830.533 724.361C832.386 718.727 834.408 713.174 836.5 707.625C838.818 701.426 840.927 695.276 842.492 688.836C843.244 686.119 843.53 686.074 846.375 685.625Z" fill="#6C7838"/>
<path d="M550.889 626.935C551.72 626.962 552.551 626.99 553.407 627.018C554.245 627.051 555.084 627.084 555.948 627.118C556.818 627.148 557.687 627.178 558.583 627.209C560.703 627.283 562.823 627.363 564.942 627.444C564.42 643.61 558.579 655.299 547.142 666.674C536.675 675.991 523.392 678.882 509.801 678.165C499.76 677.343 491.434 673.461 483.747 667.085C482.952 666.462 482.156 665.839 481.337 665.197C473.232 657.792 468.266 647.324 466.633 636.571C466.679 634.238 466.745 631.905 466.838 629.574C473.905 629.371 480.971 629.169 488.038 628.967C490.433 628.899 492.829 628.83 495.224 628.761C498.701 628.662 502.179 628.562 505.657 628.463C507.362 628.414 507.362 628.414 509.102 628.365C514.257 628.219 519.412 628.081 524.567 627.977C525.428 627.959 526.288 627.942 527.174 627.923C528.73 627.893 530.286 627.864 531.842 627.839C535.297 627.772 538.712 627.603 542.148 627.254C545.129 626.967 547.907 626.827 550.889 626.935Z" fill="#9FA76B"/>
<path d="M913.563 160.938C914.769 160.968 914.769 160.968 916 161C916.294 161.752 916.294 161.752 916.594 162.52C918.346 166.954 920.148 171.365 922.012 175.754C922.547 177.016 922.547 177.016 923.094 178.303C923.816 180.003 924.542 181.701 925.27 183.398C925.607 184.192 925.945 184.986 926.293 185.805C926.597 186.516 926.902 187.227 927.216 187.96C927.983 189.956 928.528 191.916 929 194C929.726 194.119 930.451 194.237 931.199 194.359C934.032 195.007 936.217 195.959 938.813 197.25C944.331 199.847 949.947 201.662 955.781 203.388C960.912 204.912 960.912 204.912 962 206C962.041 207.666 962.043 209.334 962 211C960.845 211.351 959.69 211.701 958.5 212.062C953.848 213.613 949.368 215.484 944.875 217.438C944.207 217.726 943.538 218.014 942.85 218.311C940.884 219.176 938.942 220.082 937 221C936.366 221.276 935.733 221.552 935.08 221.837C929.719 224.438 928.223 227.554 926.313 232.875C926.025 233.62 925.737 234.365 925.441 235.133C923.176 241.135 921.349 247.231 919.727 253.438C919 256 919 256 918 257C916.334 257.041 914.666 257.043 913 257C910.934 252.245 909 247.46 907.125 242.625C906.097 240.078 905.049 237.539 904 235C903.644 234.089 903.288 233.177 902.922 232.238C899.993 225.8 895.461 223.259 888.993 220.724C882.635 218.415 876.159 216.459 869.667 214.569C868 214 868 214 867 213C866.959 211.334 866.957 209.666 867 208C867.646 207.743 868.292 207.487 868.957 207.223C871.639 206.133 874.295 204.993 876.953 203.847C879.209 202.914 881.492 202.074 883.781 201.227C894.522 197.105 894.522 197.105 901.561 188.464C902.94 185.032 903.999 181.558 905 178C905.483 176.48 905.973 174.962 906.469 173.445C907.374 170.653 908.235 167.854 909.055 165.035C910.306 161.017 910.306 161.017 913.563 160.938Z" fill="#5D6A2B"/>
<path d="M70 261C71.9492 261.215 71.9492 261.215 74 262C76.1406 266.207 77.8164 270.43 79.2812 274.91C81.6749 281.741 83.6885 287.047 90.3948 290.458C93.556 291.822 96.7209 292.941 100 294C100.969 294.342 101.939 294.683 102.938 295.035C104.946 295.727 106.971 296.37 109 297C110 298 110 298 110.062 300.562C110.042 301.367 110.021 302.171 110 303C108.949 303.375 107.899 303.75 106.816 304.137C103.181 305.45 99.5698 306.821 95.9702 308.231C94.3682 308.856 92.7576 309.459 91.1445 310.055C84.8245 312.861 82.783 317.313 80.2109 323.559C78.7844 327.613 77.5975 331.666 76.6406 335.855C76 338 76 338 74 340C71.375 339.625 71.375 339.625 69 339C68.6494 337.845 68.2988 336.69 67.9375 335.5C67.2941 333.666 66.6478 331.833 66 330C65.8062 329.378 65.6123 328.757 65.4126 328.116C62.455 318.476 62.455 318.476 55.5586 311.555C51.8249 309.671 47.9655 308.316 44 307C42.0368 306.284 40.0776 305.557 38.125 304.812C37.3438 304.551 36.5627 304.289 35.7578 304.02C34 303 34 303 33.1172 301.012C33.0785 300.348 33.0398 299.684 33 299C35.7511 296.249 39.0295 295.397 42.625 294.125C45.4359 293.128 48.2232 292.088 51 291C51.7173 290.737 52.4346 290.474 53.1736 290.203C57.1442 288.543 59.332 287.119 61.207 283.172C61.7706 281.709 62.3054 280.234 62.8125 278.75C63.2215 277.661 63.2215 277.661 63.6387 276.551C64.451 274.375 65.2275 272.19 66 270C68.8307 262.169 68.8307 262.169 70 261Z" fill="#90995E"/>
<path d="M846 702C846.66 702 847.32 702 848 702C848.312 702.736 848.625 703.473 848.946 704.231C850.371 707.575 851.81 710.913 853.25 714.25C853.987 715.988 853.987 715.988 854.738 717.762C855.222 718.877 855.705 719.992 856.203 721.141C856.643 722.167 857.083 723.193 857.536 724.251C860.048 728.969 862.969 731.278 867.844 733.324C868.76 733.713 869.677 734.102 870.621 734.502C871.571 734.893 872.521 735.284 873.5 735.688C874.925 736.292 874.925 736.292 876.379 736.908C882.072 739.305 882.072 739.305 888 741C888 741.66 888 742.32 888 743C884.272 744.794 880.542 746.585 876.812 748.375C875.757 748.883 874.702 749.391 873.615 749.914C872.594 750.404 871.572 750.894 870.52 751.398C869.582 751.849 868.645 752.299 867.679 752.763C865 754 865 754 862.213 755.047C859.863 755.778 859.863 755.778 859.066 757.855C858.9 758.625 858.734 759.395 858.562 760.188C857.189 765.626 855.211 770.652 853.069 775.821C851.824 778.85 850.662 781.787 850 785C849.34 785 848.68 785 848 785C847.636 784.068 847.273 783.136 846.898 782.176C846.124 780.194 845.337 778.221 844.517 776.257C843.156 772.992 841.972 769.894 841.074 766.461C839.5 761.368 838.114 758.302 833.565 755.501C827.743 752.551 821.717 750.16 815.584 747.939C813.033 747.012 810.515 746.02 808 745C809.408 742.185 811.141 741.836 813.988 740.539C815.005 740.067 816.021 739.595 817.068 739.109C819.218 738.126 821.37 737.144 823.521 736.164C824.542 735.69 825.562 735.215 826.613 734.727C827.55 734.299 828.486 733.872 829.45 733.432C834.235 730.744 836.401 727.762 838.324 722.684C838.713 721.672 839.102 720.661 839.502 719.619C839.893 718.569 840.284 717.519 840.688 716.438C841.09 715.384 841.493 714.33 841.908 713.244C843.33 709.513 844.737 705.788 846 702Z" fill="#D3D6B6"/>
<path d="M414 145.602C419.282 149.295 424.03 154.858 426 161C426.841 168.926 426.682 176.304 422 183C417.216 188.211 411.816 192.509 404.633 193.434C396.194 193.443 390.35 193.059 384.07 187.199C377.8 180.499 375.318 174.262 375.594 165.062C376.665 156.988 380.827 151.5 386.938 146.375C394.819 141.121 405.686 141.292 414 145.602Z" fill="#546123"/>
<path d="M283 758C288.381 761.129 291.756 766.285 294 772C295.023 779.361 295.087 787.528 291 794C286.109 800.428 280.099 804.278 272.074 805.414C264.871 805.762 259.69 804.482 254 800C247.444 793.947 244.865 787.968 244.438 779.125C244.626 771.059 247.255 766.803 252.781 761.191C261.534 753.187 272.466 753.107 283 758Z" fill="#546023"/>
<path d="M550.889 626.935C551.72 626.962 552.551 626.99 553.407 627.018C554.246 627.051 555.084 627.084 555.948 627.118C556.818 627.148 557.687 627.178 558.583 627.209C560.703 627.283 562.823 627.363 564.942 627.444C564.392 635.302 563.826 642.209 560.3 649.318C559.65 648.968 559 648.619 558.33 648.259C556.598 648.174 554.861 648.157 553.127 648.173C552.033 648.182 550.939 648.19 549.812 648.198C548.017 648.221 548.017 648.221 546.185 648.244C544.939 648.256 543.694 648.268 542.41 648.28C528.454 648.431 514.5 648.72 500.547 649.028C497.109 649.103 493.671 649.176 490.233 649.249C483.572 649.391 476.912 649.536 470.251 649.682C466.06 635.92 466.06 635.92 466.838 629.574C473.905 629.371 480.971 629.169 488.038 628.967C490.433 628.899 492.829 628.83 495.224 628.761C498.702 628.662 502.179 628.562 505.657 628.463C507.362 628.414 507.362 628.414 509.103 628.365C514.257 628.219 519.412 628.081 524.567 627.977C525.428 627.959 526.288 627.942 527.174 627.923C528.73 627.893 530.286 627.864 531.842 627.839C535.297 627.772 538.712 627.603 542.148 627.254C545.129 626.967 547.907 626.827 550.889 626.935Z" fill="#929B5B"/>
<path d="M655.746 327.973C657.431 329.075 657.431 329.075 658.657 331.06C658.878 333.805 658.923 336.319 658.827 339.056C658.81 339.87 658.793 340.683 658.776 341.521C658.715 344.212 658.633 346.902 658.548 349.592C658.498 351.461 658.449 353.33 658.4 355.198C658.294 359.117 658.177 363.035 658.052 366.953C657.894 371.976 657.767 376.999 657.649 382.022C657.554 385.883 657.441 389.742 657.322 393.602C657.268 395.454 657.22 397.306 657.178 399.158C657.117 401.748 657.031 404.336 656.938 406.925C656.925 407.691 656.912 408.457 656.899 409.247C656.747 412.771 656.486 414.673 654.221 417.441C651.904 419.028 650.842 419.412 648.07 419.288C647.41 419.279 646.75 419.27 646.07 419.261C643.143 418.391 642.037 416.977 640.205 414.556C639.811 411.594 639.811 411.594 639.939 408.124C639.997 406.174 639.997 406.174 640.056 404.183C640.117 402.769 640.18 401.355 640.242 399.941C640.292 398.49 640.341 397.04 640.387 395.589C640.514 391.777 640.665 387.966 640.821 384.155C640.976 380.263 641.108 376.371 641.242 372.478C641.508 364.846 641.8 357.214 642.108 349.584C641.367 350.14 640.626 350.696 639.862 351.269C638.38 352.339 638.38 352.339 636.868 353.432C635.895 354.146 634.923 354.861 633.92 355.597C630.499 357.465 628.696 357.635 624.881 357.083C623.038 355.966 623.038 355.966 621.97 353.996C621.641 349.877 621.526 347.789 624.197 344.538C625.122 343.808 626.048 343.078 627.001 342.326C628.027 341.516 629.053 340.707 630.109 339.873C630.657 339.459 631.204 339.045 631.768 338.619C633.495 337.301 635.173 335.935 636.854 334.56C642.992 329.668 647.593 326.013 655.746 327.973Z" fill="#FAFBF9"/>
<path d="M452.511 333.027C454.902 334.661 454.902 334.661 456.392 337.143C456.854 340.595 456.854 340.595 456.187 344.14C453.911 346.488 453.911 346.488 451.043 348.991C432.762 365.052 422.546 384.565 417.295 408.216C416.141 412.146 415.602 413.824 412.069 415.879C408.181 416.319 406.01 416.265 402.678 414.166C398.871 407.491 402.018 399.242 403.919 392.281C408.829 375.348 417.181 360.362 429.082 347.348C429.677 346.657 430.273 345.967 430.886 345.255C443.589 330.828 443.589 330.828 452.511 333.027Z" fill="#BFC398"/>
<path d="M913 178C915.343 180.108 916.495 181.795 917.516 184.766C921.328 194.958 921.328 194.958 929.579 201.546C932.683 202.843 935.806 203.937 939 205C941.353 205.96 943.674 206.976 946 208C941.769 211.557 936.752 213.6 931.756 215.863C927.406 217.939 925.035 219.44 923 224C922.482 225.137 921.964 226.274 921.43 227.445C920.917 228.66 920.404 229.874 919.875 231.125C919.611 231.745 919.346 232.365 919.074 233.004C917.954 235.649 916.909 238.274 916 241C915.34 241 914.68 241 914 241C913.779 240.476 913.557 239.951 913.329 239.411C912.313 237.02 911.282 234.635 910.25 232.25C909.902 231.425 909.554 230.6 909.195 229.75C905.675 221.666 901.967 218.63 893.938 215.312C892.858 214.851 892.858 214.851 891.756 214.381C888.863 213.153 885.983 211.994 883 211C883 210.34 883 209.68 883 209C883.589 208.807 884.178 208.614 884.785 208.415C898.202 203.84 898.202 203.84 907.398 193.66C909.689 188.584 911.506 183.363 913 178Z" fill="#D4D8B9"/>
<path d="M517.283 252.076C521.435 255.126 524.792 258.276 526.587 263.166C527.266 270.565 526.785 276.235 522.033 282.04C516.301 287.049 511.505 287.153 504.123 286.854C499.511 286.239 496.942 284.832 494.045 281.221C490.59 276.257 489.659 271.48 490.129 265.486C491.177 259.887 494.125 256.481 498.438 252.9C504.415 248.977 510.814 249.585 517.283 252.076Z" fill="#5A6726"/>
<path d="M407 151C412.305 153.513 415.387 157.234 418.312 162.25C419.74 167.96 418.769 173.185 415.937 178.313C413.063 182.45 409.802 184.563 405 186C398.967 186.862 395.16 185.747 389.988 182.531C386.864 180.125 385.028 177.759 384 174C383.286 168.406 383.191 163.711 385.625 158.563C386.409 157.717 387.192 156.871 388 156C388.804 155.051 389.609 154.103 390.437 153.125C395.107 149.434 401.421 150.232 407 151Z" fill="#ACB37B"/>
<path d="M277.125 763.625C281.974 766.271 285.225 769.675 287 775C287.399 780.883 286.994 785.811 284 791C280.679 794.666 277.314 796.763 272.328 797.274C266.304 797.472 262.019 797.466 257.332 793.43C252.842 788.611 251.559 783.66 251.656 777.156C252.531 771.672 255.872 767.88 260.125 764.563C265.891 761.429 271.084 760.873 277.125 763.625Z" fill="#B3B984"/>
<path d="M810.25 427.625C815.962 428.196 819.861 430.53 823.617 434.867C826.642 439.259 827.788 442.582 827 448C825.107 453.778 822.438 457.902 817.176 461.113C812.948 462.836 808.472 462.526 804 462C799.549 459.815 796.811 457.061 794 453C792.15 447.45 792.035 441.967 794.625 436.688C799.413 431.269 803.02 428.459 810.25 427.625Z" fill="#919960"/>
<path d="M71 277C73.9809 279.51 74.8703 282.096 76.25 285.688C80.137 293.89 87.0489 296.561 95 300C92.1041 302.296 89.1828 304.043 85.875 305.688C84.5718 306.343 84.5718 306.343 83.2422 307.012C81 308 81 308 79 308C78.7525 308.784 78.505 309.567 78.25 310.375C76.6607 314.984 74.8379 319.485 73 324C72.34 324 71.68 324 71 324C69.9956 321.71 68.9963 319.418 68 317.125C67.7138 316.474 67.4277 315.823 67.1328 315.152C65 310.227 65 310.227 65 308C63.8553 307.66 63.8553 307.66 62.6875 307.312C57.6468 305.518 52.8465 303.259 48 301C50.5599 298.44 53.2104 297.382 56.5 295.875C57.6653 295.336 58.8306 294.797 60.0312 294.242C63 293 63 293 65 293C65.1121 292.295 65.2243 291.59 65.3398 290.863C66.0631 287.726 67.1946 285.099 68.5625 282.188C69.0175 281.212 69.4726 280.236 69.9414 279.23C70.2907 278.494 70.6401 277.758 71 277Z" fill="#F1F1E7"/>
<path d="M513.71 258.787C516.637 261.311 516.637 261.311 518.562 263.931C518.882 264.27 519.202 264.61 519.532 264.96C519.769 269.944 519.467 273.025 516.182 276.867C513.185 279.14 511.35 279.695 507.585 280.054C502.817 279.316 500.71 277.387 497.895 273.58C497.006 269.974 497.312 266.788 498.57 263.346C502.904 258.444 507.282 257.059 513.71 258.787Z" fill="#F3F4EC"/>
<path d="M813 436C815.753 437.796 817.526 439.053 819 442C819.394 446.181 819.45 448.309 817.125 451.875C814.562 454.438 813.74 454.952 810.125 455.188C806.997 455 805.51 454.818 803 453C800.505 449.988 800 448.443 800 444.5C802.004 437.487 805.774 434.839 813 436Z" fill="#F3F4EC"/>
<path d="M427.078 313.275C426.99 316.273 426.99 316.273 425.375 318.128C424.277 319.141 424.277 319.141 423.156 320.174C422.367 320.909 421.578 321.644 420.766 322.4C419.932 323.162 419.099 323.924 418.24 324.708C417.406 325.482 416.572 326.255 415.713 327.051C413.649 328.964 411.577 330.869 409.5 332.768C408.85 332.419 408.2 332.07 407.53 331.71C409.824 329.354 412.125 327.006 414.427 324.659C415.073 323.996 415.718 323.333 416.383 322.649C419.768 319.206 423.102 316.048 427.078 313.275Z" fill="#9EA66A"/>
<path d="M908 168C910 171 910 171 909.758 173.262C909.549 174.062 909.34 174.863 909.125 175.688C908.921 176.496 908.718 177.304 908.508 178.137C908.256 179.059 908.256 179.059 908 180C907.01 180 906.02 180 905 180C905.99 176.04 906.98 172.08 908 168Z" fill="#68723C"/>
<path d="M504.685 259.523C503.193 262.848 501.561 264.42 498.482 266.344C499.217 262.72 500.54 259.402 504.685 259.523Z" fill="#EDEFE5"/>
<path d="M888 208C888 208.99 888 209.98 888 211C888.66 211 889.32 211 890 211C889.67 211.66 889.34 212.32 889 213C887.02 212.34 885.04 211.68 883 211C883 210.34 883 209.68 883 209C886 208 886 208 888 208Z" fill="#CDD2B3"/>
<path d="M913 178C914.5 179.375 914.5 179.375 916 181C916 181.66 916 182.32 916 183C914.35 183.33 912.7 183.66 911 184C911.66 182.02 912.32 180.04 913 178Z" fill="#CDD3B2"/>
</svg>
