<svg width="1004" height="927" viewBox="0 0 1004 927" fill="none" xmlns="http://www.w3.org/2000/svg">
<path d="M686 60C686.955 60.4602 687.909 60.9204 688.893 61.3945C708.577 70.9164 726.987 81.6215 745 94C745.625 94.4278 746.25 94.8556 746.894 95.2964C756.003 101.562 764.612 108.373 773.114 115.435C774.839 116.866 776.571 118.289 778.305 119.711C792.288 131.27 806.103 143.794 817.918 157.582C819.528 159.452 821.156 161.298 822.801 163.137C836.636 178.698 848.736 195.506 860 213C860.555 213.858 861.109 214.715 861.681 215.599C873.264 233.628 883.15 252.496 892 272C892.429 272.943 892.858 273.887 893.299 274.858C915.683 324.762 929.972 381.306 930.203 436.113C930.21 437.233 930.217 438.354 930.224 439.508C930.242 443.109 930.248 446.711 930.25 450.312C930.251 452.16 930.251 452.16 930.252 454.046C930.236 472.879 929.755 491.34 927 510C926.823 511.211 926.646 512.422 926.464 513.67C920.106 555.856 908.164 597.358 890 636C889.575 636.919 889.151 637.838 888.713 638.785C878.696 660.433 867.616 681.391 854 701C852.706 702.977 851.414 704.957 850.125 706.938C830.432 736.477 805.649 766.932 777.613 788.945C774.821 791.141 772.136 793.439 769.438 795.75C744.62 816.41 716.12 833.185 687 847C686.23 847.372 685.461 847.743 684.667 848.126C660.687 859.656 635.764 868.415 610 875C609.024 875.252 608.047 875.504 607.041 875.764C501.127 902.738 386.65 885.139 292.664 829.805C275.857 819.758 259.88 808.438 244 797C243.563 798.178 243.563 798.178 243.117 799.379C239.068 809.756 235.476 815.32 225.27 820.055C219.058 822.642 212.794 823.175 206.301 821.164C198.916 817.794 194 812.948 190.344 805.73C187.774 798.597 187.548 790.155 190.066 782.949C194.618 774.777 201.411 770.221 210 767C209.34 766.34 208.68 765.68 208 765C207.544 764.542 207.087 764.085 206.617 763.613C205.461 762.46 204.299 761.312 203.133 760.168C199.214 756.303 195.483 752.352 191.898 748.176C189.733 745.693 187.491 743.289 185.25 740.875C179.957 735.069 175.125 728.961 170.339 722.733C169.074 721.095 167.792 719.472 166.504 717.852C155.129 703.401 145.361 687.809 136 672C135.623 671.365 135.246 670.73 134.858 670.075C132.13 665.441 129.534 660.743 127 656C126.523 655.109 126.047 654.219 125.556 653.301C101.543 607.966 86.1055 557.763 79 507C78.8377 505.872 78.6755 504.744 78.5083 503.582C66.3521 415.477 87.5845 325.063 150 208C150.963 206.555 151.924 205.108 152.883 203.66C160.297 192.53 168.313 182.161 177 172C178.09 170.715 179.18 169.43 180.27 168.145C182.724 165.258 185.194 162.387 187.678 159.526C188.942 158.067 190.198 156.6 191.453 155.133C192.17 154.305 192.887 153.478 193.625 152.625C194.236 151.916 194.847 151.207 195.477 150.477C197 149 197 149 199 149C199.33 148.01 199.66 147.02 200 146C201.566 144.457 201.566 144.457 203.562 142.812C206.46 140.362 209.176 137.854 211.812 135.125C215.673 131.212 219.819 127.772 224.105 124.336C226.97 122.024 229.764 119.642 232.562 117.25C253.822 99.5614 277.492 84.714 302 72C303.084 71.4344 303.084 71.4344 304.189 70.8574C308.753 68.4865 313.355 66.2087 318 64C318.738 63.6487 319.477 63.2974 320.237 62.9355C333.871 56.5071 347.81 51.0696 362 46C362.867 45.6882 363.733 45.3764 364.626 45.0551C396.772 33.5939 430.005 26.4556 463.875 22.6875C464.97 22.5652 464.97 22.5652 466.088 22.4405C540.544 14.2783 618.539 27.1303 686 60Z" fill="#F6F6EC"/>
<path d="M520.859 270.467C522.129 270.454 522.129 270.454 523.425 270.44C526.2 270.418 528.975 270.425 531.75 270.434C533.692 270.428 535.635 270.422 537.577 270.415C541.639 270.404 545.7 270.409 549.762 270.424C554.954 270.441 560.144 270.417 565.336 270.382C569.344 270.36 573.352 270.362 577.361 270.37C579.274 270.371 581.188 270.364 583.101 270.349C585.782 270.332 588.46 270.346 591.141 270.369C591.922 270.357 592.704 270.346 593.509 270.333C600.789 270.458 605.501 273.642 610.699 278.547C614.221 283.156 615.884 288.847 617.813 294.25C618.219 295.351 618.626 296.452 619.045 297.586C622 305.671 622 305.671 622 308C622.936 307.974 623.871 307.948 624.835 307.921C652.28 307.254 675.535 308.181 697 328C714.516 345.573 721.35 365.567 721.418 390.007C721.413 391.931 721.409 393.856 721.404 395.781C721.41 397.844 721.417 399.907 721.425 401.97C721.443 407.536 721.442 413.102 721.436 418.669C721.433 423.333 721.439 427.997 721.445 432.661C721.459 443.673 721.457 454.686 721.446 465.699C721.435 477.021 721.449 488.343 721.475 499.665C721.498 509.421 721.504 519.178 721.498 528.935C721.495 534.746 721.497 540.558 721.515 546.369C721.53 551.838 721.526 557.307 721.507 562.776C721.504 564.77 721.507 566.764 721.517 568.758C721.591 583.805 720.628 598.963 713.188 612.438C712.668 613.421 712.668 613.421 712.138 614.424C701.822 633.57 687.044 645.746 666.691 652.906C658.827 655.237 651.217 655.148 643.066 655.147C641.106 655.153 641.106 655.153 639.106 655.158C635.489 655.168 631.872 655.172 628.254 655.175C624.349 655.179 620.444 655.188 616.538 655.197C607.113 655.217 597.687 655.227 588.262 655.236C583.818 655.24 579.374 655.245 574.931 655.251C560.151 655.268 545.371 655.282 530.591 655.289C526.759 655.291 522.927 655.293 519.095 655.295C517.666 655.296 517.666 655.296 516.209 655.297C500.787 655.305 485.364 655.33 469.942 655.363C454.092 655.396 438.242 655.414 422.392 655.417C413.499 655.419 404.607 655.428 395.714 655.454C388.14 655.475 380.566 655.483 372.992 655.474C369.132 655.469 365.272 655.471 361.412 655.49C357.216 655.511 353.02 655.501 348.823 655.488C347.619 655.499 346.416 655.51 345.176 655.521C325.22 655.371 307.841 646.364 293.672 632.766C280.24 618.785 272.848 600.484 272.853 581.148C272.849 580.268 272.846 579.388 272.842 578.481C272.831 575.539 272.827 572.596 272.823 569.653C272.817 567.54 272.81 565.427 272.803 563.314C272.782 556.379 272.772 549.443 272.762 542.508C272.758 540.115 272.754 537.723 272.749 535.33C272.73 524.085 272.716 512.839 272.708 501.593C272.698 488.638 272.672 475.684 272.631 462.729C272.601 452.7 272.586 442.671 272.583 432.642C272.581 426.66 272.572 420.678 272.547 414.696C272.523 409.06 272.519 403.425 272.529 397.789C272.53 395.732 272.524 393.674 272.51 391.617C272.354 367.096 278.147 347.731 295.25 329.313C309.02 316.276 327.416 307.771 346.5 307.75C348.334 307.812 350.168 307.887 352 308C351.942 306.926 351.884 305.852 351.824 304.746C351.33 291.795 351.33 291.795 354.188 287.688C359.402 282.705 363.227 281.539 370.371 281.566C371.571 281.559 371.571 281.559 372.795 281.551C374.482 281.544 376.169 281.545 377.856 281.554C380.426 281.562 382.994 281.534 385.564 281.502C387.208 281.5 388.852 281.501 390.496 281.504C391.64 281.487 391.64 281.487 392.807 281.47C397.98 281.537 400.873 282.631 405 286C411.935 293.872 410 294.65 410 308C436.07 308 462.14 308 489 308C489.99 304.7 490.98 301.4 492 298C493.083 295.053 494.188 292.153 495.375 289.25C495.793 288.177 495.793 288.177 496.219 287.082C499.12 279.96 502.773 275.189 509.771 271.83C513.462 270.456 516.956 270.434 520.859 270.467Z" fill="#9EAA61"/>
<path d="M353.047 314.726C354.33 314.721 355.612 314.715 356.934 314.71C360.47 314.696 364.006 314.694 367.542 314.695C371.366 314.693 375.19 314.68 379.013 314.668C387.363 314.646 395.712 314.638 404.062 314.633C409.283 314.629 414.503 314.623 419.724 314.616C434.2 314.596 448.677 314.58 463.153 314.577C464.078 314.576 465.004 314.576 465.957 314.576C467.832 314.576 469.707 314.575 471.582 314.575C472.513 314.575 473.444 314.575 474.403 314.574C475.801 314.574 475.801 314.574 477.227 314.574C492.318 314.57 507.408 314.543 522.498 314.506C538.02 314.468 553.541 314.449 569.062 314.448C577.765 314.448 586.468 314.439 595.172 314.41C602.584 314.386 609.996 314.378 617.409 314.393C621.184 314.401 624.959 314.4 628.735 314.377C654.288 314.231 675.171 316.899 694.348 335.246C703.952 345.278 709.626 356.618 713 370C713.177 370.61 713.354 371.221 713.536 371.849C714.073 374.339 714.123 376.603 714.12 379.151C714.122 380.711 714.122 380.711 714.124 382.303C714.121 383.439 714.117 384.575 714.113 385.745C714.114 386.945 714.114 388.146 714.114 389.382C714.113 392.669 714.108 395.956 714.101 399.243C714.095 402.679 714.095 406.116 714.093 409.553C714.09 416.059 714.082 422.564 714.072 429.07C714.06 437.204 714.054 445.338 714.049 453.473C714.039 467.982 714.019 482.491 714 497C682.32 497 650.64 497 618 497C617.34 487.43 616.68 477.86 616 468C613.512 456.39 610.477 446.483 605 436C604.198 434.385 604.198 434.385 603.379 432.738C587.933 402.595 562.274 383.282 530.559 372.782C501.998 364.052 470.183 368.642 444 382.312C436.383 386.45 429.64 391.456 423 397C422.254 397.594 421.507 398.189 420.738 398.801C399.628 416.178 387.779 442.993 382 469C381.34 478.24 380.68 487.48 380 497C347 497 314 497 280 497C279.879 466.493 279.879 466.493 279.849 451.371C279.833 443.209 279.812 435.046 279.774 426.884C279.744 420.419 279.724 413.954 279.718 407.489C279.714 404.07 279.705 400.652 279.683 397.233C279.661 393.404 279.658 389.575 279.659 385.745C279.649 384.629 279.638 383.512 279.627 382.362C279.695 364.828 286.329 349.98 298 337C298.53 336.377 299.06 335.755 299.605 335.113C313.393 319.964 333.378 314.686 353.047 314.726Z" fill="#F7F6F6"/>
<path d="M577.309 397.684C600.651 418.341 615.795 447.871 618 479C619.504 512.522 611.945 542.059 590 568C589.181 568.994 588.363 569.988 587.52 571.012C570.53 590.675 547.193 603.2 522 609C521.114 609.206 520.229 609.412 519.316 609.625C488.683 615.743 458.567 607.05 432.886 590.438C428.287 587.349 424.191 583.856 420.184 580.043C418.006 577.944 418.006 577.944 415.488 576.043C397.473 561.252 387.151 536.063 382 514C381.754 513.024 381.508 512.048 381.254 511.043C378.19 496.612 378.718 479.326 382 465C382.257 463.83 382.513 462.659 382.777 461.453C390.568 429.221 411.164 401.455 439.336 384.133C483.859 357.695 538.422 364.342 577.309 397.684Z" fill="#444443"/>
<path d="M547 423.562C548.342 424.699 549.675 425.844 551 427C551.648 427.495 552.297 427.99 552.965 428.5C569.01 441.209 577.569 462.232 580 482C581.419 504.865 574.669 525.957 559.648 543.587C546.253 558.657 527.761 569.502 507.398 571.219C484.678 572.227 464.425 567.207 447 552C446.027 551.257 446.027 551.257 445.035 550.5C428.708 537.568 420.474 516.088 418 496C416.438 473.223 423.174 453.438 438 436C438.627 435.184 439.253 434.368 439.898 433.527C465.881 402.281 515.609 399.697 547 423.562Z" fill="#A0AB64"/>
<path d="M520.859 270.467C522.129 270.454 522.129 270.454 523.425 270.44C526.2 270.418 528.975 270.425 531.75 270.434C533.692 270.428 535.635 270.422 537.577 270.415C541.639 270.404 545.7 270.409 549.762 270.424C554.954 270.441 560.144 270.417 565.336 270.382C569.344 270.36 573.352 270.362 577.361 270.37C579.274 270.371 581.188 270.364 583.101 270.349C585.782 270.332 588.46 270.346 591.141 270.369C591.922 270.357 592.704 270.346 593.509 270.333C600.789 270.458 605.501 273.642 610.699 278.547C614.221 283.156 615.884 288.847 617.813 294.25C618.219 295.351 618.626 296.452 619.045 297.586C622 305.671 622 305.671 622 308C622.936 307.974 623.871 307.948 624.835 307.921C652.28 307.254 675.535 308.181 697 328C714.516 345.573 721.35 365.567 721.418 390.007C721.413 391.931 721.409 393.856 721.404 395.781C721.41 397.844 721.417 399.907 721.425 401.97C721.443 407.536 721.442 413.102 721.436 418.669C721.433 423.333 721.439 427.997 721.445 432.661C721.459 443.673 721.457 454.686 721.446 465.699C721.435 477.021 721.449 488.343 721.475 499.665C721.498 509.421 721.504 519.178 721.498 528.935C721.495 534.746 721.497 540.558 721.515 546.369C721.53 551.838 721.526 557.307 721.507 562.776C721.504 564.77 721.507 566.764 721.517 568.758C721.591 583.805 720.628 598.963 713.188 612.438C712.668 613.421 712.668 613.421 712.138 614.424C701.822 633.57 687.044 645.746 666.691 652.906C658.827 655.237 651.217 655.148 643.066 655.147C641.106 655.153 641.106 655.153 639.106 655.158C635.489 655.168 631.872 655.172 628.254 655.175C624.349 655.179 620.444 655.188 616.538 655.197C607.113 655.217 597.687 655.227 588.262 655.236C583.818 655.24 579.374 655.245 574.931 655.251C560.151 655.268 545.371 655.282 530.591 655.289C526.759 655.291 522.927 655.293 519.095 655.295C517.666 655.296 517.666 655.296 516.209 655.297C500.787 655.305 485.364 655.33 469.942 655.363C454.092 655.396 438.242 655.414 422.392 655.417C413.499 655.419 404.607 655.428 395.714 655.454C388.14 655.475 380.566 655.483 372.992 655.474C369.132 655.469 365.272 655.471 361.412 655.49C357.216 655.511 353.02 655.501 348.823 655.488C347.619 655.499 346.416 655.51 345.176 655.521C325.22 655.371 307.841 646.364 293.672 632.766C280.24 618.785 272.848 600.484 272.853 581.148C272.849 580.268 272.846 579.388 272.842 578.481C272.831 575.539 272.827 572.596 272.823 569.653C272.817 567.54 272.81 565.427 272.803 563.314C272.782 556.379 272.772 549.443 272.762 542.508C272.758 540.115 272.754 537.723 272.749 535.33C272.73 524.085 272.716 512.839 272.708 501.593C272.698 488.638 272.672 475.684 272.631 462.729C272.601 452.7 272.586 442.671 272.583 432.642C272.581 426.66 272.572 420.678 272.547 414.696C272.523 409.06 272.519 403.425 272.529 397.789C272.53 395.732 272.524 393.674 272.51 391.617C272.354 367.096 278.147 347.731 295.25 329.313C309.02 316.276 327.416 307.771 346.5 307.75C348.334 307.812 350.168 307.887 352 308C351.942 306.926 351.884 305.852 351.824 304.746C351.33 291.795 351.33 291.795 354.188 287.688C359.402 282.705 363.227 281.539 370.371 281.566C371.571 281.559 371.571 281.559 372.795 281.551C374.482 281.544 376.169 281.545 377.856 281.554C380.426 281.562 382.994 281.534 385.564 281.502C387.208 281.5 388.852 281.501 390.496 281.504C391.64 281.487 391.64 281.487 392.807 281.47C397.98 281.537 400.873 282.631 405 286C411.935 293.872 410 294.65 410 308C436.07 308 462.14 308 489 308C489.99 304.7 490.98 301.4 492 298C493.083 295.053 494.188 292.153 495.375 289.25C495.793 288.177 495.793 288.177 496.219 287.082C499.12 279.96 502.773 275.189 509.771 271.83C513.462 270.456 516.956 270.434 520.859 270.467ZM294.469 340.879C280.04 358.939 278.535 379.265 278.612 401.45C278.608 403.441 278.602 405.433 278.596 407.424C278.582 412.779 278.587 418.134 278.597 423.489C278.605 429.12 278.598 434.752 278.593 440.383C278.587 449.831 278.595 459.279 278.609 468.727C278.625 479.622 278.62 490.518 278.603 501.413C278.59 510.804 278.588 520.195 278.596 529.586C278.6 535.179 278.601 540.772 278.591 546.365C278.582 551.622 278.589 556.878 278.606 562.135C278.61 564.055 278.609 565.975 278.602 567.895C278.53 590.92 283.519 612.283 300.082 629.207C313.713 642.549 329.338 648.315 348.092 648.267C349.404 648.272 350.716 648.277 352.068 648.281C355.694 648.293 359.32 648.293 362.946 648.291C366.863 648.29 370.78 648.301 374.697 648.311C382.366 648.328 390.035 648.333 397.705 648.334C403.942 648.335 410.179 648.339 416.417 648.346C434.117 648.363 451.817 648.372 469.518 648.371C470.948 648.371 470.948 648.371 472.408 648.371C473.363 648.371 474.317 648.37 475.301 648.37C490.765 648.37 506.23 648.389 521.694 648.417C537.589 648.446 553.484 648.459 569.38 648.458C578.297 648.457 587.214 648.462 596.131 648.484C603.725 648.502 611.32 648.507 618.914 648.493C622.784 648.487 626.654 648.486 630.524 648.504C634.076 648.52 637.628 648.517 641.18 648.499C643.054 648.495 644.928 648.51 646.802 648.526C665.553 648.375 680.77 640.926 694.125 628.188C707.289 614.579 714.152 597.109 714.147 578.286C714.153 576.989 714.153 576.989 714.158 575.665C714.169 572.773 714.173 569.881 714.177 566.988C714.183 564.912 714.19 562.835 714.197 560.758C714.218 553.943 714.228 547.128 714.238 540.313C714.242 537.962 714.246 535.612 714.251 533.261C714.27 522.215 714.284 511.169 714.292 500.123C714.302 487.393 714.328 474.664 714.369 461.935C714.399 452.082 714.414 442.23 714.417 432.377C714.419 426.499 714.428 420.622 714.454 414.744C714.477 409.208 714.481 403.673 714.471 398.137C714.47 396.115 714.477 394.092 714.49 392.069C714.627 370.809 710.006 352.007 695 336C681.46 322.525 665.114 314.836 645.797 314.723C644.606 314.726 643.415 314.729 642.187 314.733C640.905 314.728 639.623 314.724 638.303 314.719C634.76 314.707 631.218 314.707 627.675 314.709C623.848 314.71 620.021 314.699 616.194 314.689C608.7 314.673 601.207 314.667 593.714 314.666C587.618 314.665 581.522 314.661 575.427 314.655C558.124 314.637 540.821 314.628 523.518 314.629C522.585 314.629 521.653 314.629 520.693 314.629C519.76 314.63 518.826 314.63 517.865 314.63C502.754 314.63 487.643 314.611 472.533 314.583C456.997 314.554 441.461 314.541 425.925 314.542C417.212 314.543 408.498 314.538 399.784 314.516C392.361 314.498 384.939 314.493 377.516 314.507C373.735 314.513 369.954 314.514 366.173 314.496C336.972 314.37 314.409 318.2 294.469 340.879Z" fill="#636F2D"/>
<path d="M863 714C864.91 714.149 864.91 714.149 867 715C868.305 716.983 868.305 716.983 869.445 719.609C869.876 720.582 870.307 721.555 870.751 722.557C871.205 723.611 871.658 724.664 872.125 725.75C872.858 727.361 872.858 727.361 873.606 729.004C876.002 734.283 878.238 739.552 880.168 745.02C884.082 755.795 884.082 755.795 892.781 762.648C897.432 764.326 902.164 765.405 907.007 766.367C912.045 767.433 916.943 768.969 921.875 770.438C924.914 771.301 927.957 772.151 931 773C931.495 775.475 931.495 775.475 932 778C930.884 778.438 929.767 778.877 928.617 779.328C924.321 781.044 920.094 782.896 915.867 784.774C912.992 786.003 910.085 787.09 907.156 788.184C899.938 791.154 893.238 794.075 889.239 801.089C886.229 808.336 884.404 815.837 882.766 823.495C881.708 828.335 880.326 833.059 878.938 837.812C878.28 840.205 877.639 842.602 877 845C875.68 845 874.36 845 873 845C872.744 844.372 872.488 843.745 872.225 843.098C870.557 839.02 868.889 834.944 867.144 830.898C864.954 825.82 862.884 820.856 861.387 815.527C859.296 808.844 857.244 803.807 850.899 800.272C841.004 796.034 830.563 793.216 819.994 791.23C818.731 790.989 817.469 790.748 816.168 790.5C815.03 790.304 813.892 790.108 812.719 789.906C810 789 810 789 808.615 786.906C808.31 785.963 808.31 785.963 808 785C811.964 782.534 816.063 780.429 820.25 778.375C827.012 775.033 833.69 771.553 840.327 767.97C843.824 766.095 847.268 764.377 851 763C851.107 762.08 851.214 761.159 851.324 760.211C852.082 754.922 853.483 749.793 854.812 744.625C856.902 736.409 858.939 728.187 860.794 719.915C861.894 715.106 861.894 715.106 863 714Z" fill="#B6BE81"/>
<path d="M521.956 277.839C522.766 277.834 523.576 277.829 524.411 277.824C527.093 277.809 529.775 277.802 532.457 277.797C534.322 277.791 536.186 277.785 538.051 277.78C541.962 277.769 545.874 277.763 549.785 277.76C554.792 277.754 559.799 277.73 564.806 277.702C568.659 277.683 572.511 277.678 576.364 277.676C578.21 277.673 580.055 277.665 581.901 277.652C584.486 277.635 587.07 277.637 589.656 277.644C590.794 277.63 590.794 277.63 591.956 277.616C596.71 277.653 599.967 278.472 604 281C609.621 288.654 612.469 299.106 615.68 307.973C615.935 308.677 616.19 309.38 616.453 310.106C617 312 617 312 617 315C576.41 315 535.82 315 494 315C496.116 307.947 498.277 301.079 500.812 294.187C501.13 293.273 501.448 292.358 501.775 291.416C503.912 285.643 505.82 282.409 511 279C514.692 277.769 518.111 277.844 521.956 277.839Z" fill="#A1AB64"/>
<path d="M863 82C864.32 82 865.64 82 867 82C867.337 82.7352 867.675 83.4705 868.022 84.228C869.576 87.6111 871.132 90.9931 872.688 94.375C873.483 96.1094 873.483 96.1094 874.295 97.8789C877.121 104.018 880.007 110.101 883.128 116.096C884 118 884 118 884 120C884.562 120.147 885.124 120.294 885.703 120.445C893.125 122.426 900.477 124.619 907.829 126.842C912.543 128.267 917.261 129.662 922 131C921.828 132.823 921.828 132.823 921 135C918.734 136.476 918.734 136.476 915.75 137.84C914.666 138.346 913.582 138.852 912.465 139.373C911.321 139.889 910.178 140.406 909 140.938C905.679 142.467 902.363 144.003 899.057 145.565C897.152 146.459 895.233 147.326 893.296 148.15C889.99 149.691 887.652 150.859 885.81 154.084C884.9 156.623 884.263 159.115 883.688 161.75C883.457 162.67 883.226 163.59 882.988 164.538C882.29 167.351 881.643 170.173 881 173C880.585 174.721 880.167 176.441 879.746 178.16C878.791 182.098 877.881 186.045 877 190C875.02 190.495 875.02 190.495 873 191C868.685 182.551 864.747 173.951 860.842 165.307C860.375 164.279 859.907 163.251 859.426 162.191C859.007 161.265 858.589 160.339 858.157 159.385C856.473 155.915 855.648 154.269 852.007 152.757C850.75 152.36 849.494 151.964 848.199 151.555C847.526 151.339 846.852 151.124 846.159 150.902C844.734 150.449 843.307 150 841.879 149.556C839.703 148.88 837.532 148.189 835.361 147.496C833.974 147.056 832.587 146.618 831.199 146.18C830.553 145.976 829.907 145.771 829.242 145.561C825.851 144.509 822.496 143.62 819 143C819.094 140.703 819.094 140.703 820 138C822.208 136.648 824.127 135.708 826.5 134.75C827.865 134.128 829.23 133.506 830.594 132.883C833.536 131.585 836.491 130.475 839.531 129.43C845.332 127.214 850.378 125.089 853.378 119.376C856.127 112.126 857.589 104.603 859 97C859.336 95.4293 859.679 93.86 860.031 92.293C860.55 89.9625 861.043 87.626 861.492 85.2812C862 83 862 83 863 82Z" fill="#677232"/>
<path d="M227.609 769.676C235.87 774.252 240.067 780.201 243 789C244 797.935 241.833 805.649 236.375 812.812C231.783 817.78 224.379 821.49 217.652 822.273C209.351 822.584 203.17 820.754 196.926 815.133C189.953 807.619 188.153 800.076 188.527 789.957C189.441 782.31 193.015 777.308 198.937 772.562C208.449 766.216 217.094 764.964 227.609 769.676Z" fill="#BAC288"/>
<path d="M863 714C864.91 714.149 864.91 714.149 867 715C868.305 716.983 868.305 716.983 869.445 719.609C869.876 720.582 870.307 721.555 870.751 722.557C871.205 723.611 871.658 724.664 872.125 725.75C872.858 727.361 872.858 727.361 873.606 729.004C876.002 734.283 878.238 739.552 880.168 745.02C884.082 755.795 884.082 755.795 892.781 762.648C897.432 764.326 902.164 765.405 907.007 766.367C912.045 767.433 916.943 768.969 921.875 770.438C924.914 771.301 927.957 772.151 931 773C931.495 775.475 931.495 775.475 932 778C930.884 778.438 929.767 778.877 928.617 779.328C924.321 781.044 920.094 782.896 915.867 784.774C912.992 786.003 910.085 787.09 907.156 788.184C899.938 791.154 893.238 794.075 889.239 801.089C886.229 808.336 884.404 815.837 882.766 823.495C881.708 828.335 880.326 833.059 878.938 837.812C878.28 840.205 877.639 842.602 877 845C875.68 845 874.36 845 873 845C872.744 844.372 872.488 843.745 872.225 843.098C870.557 839.02 868.889 834.944 867.144 830.898C864.954 825.82 862.884 820.856 861.387 815.527C859.296 808.844 857.244 803.807 850.899 800.272C841.004 796.034 830.563 793.216 819.994 791.23C818.731 790.989 817.469 790.748 816.168 790.5C815.03 790.304 813.892 790.108 812.719 789.906C810 789 810 789 808.615 786.906C808.31 785.963 808.31 785.963 808 785C811.964 782.534 816.063 780.429 820.25 778.375C827.012 775.033 833.69 771.553 840.327 767.97C843.824 766.095 847.268 764.377 851 763C851.107 762.08 851.214 761.159 851.324 760.211C852.082 754.922 853.483 749.793 854.812 744.625C856.902 736.409 858.939 728.187 860.794 719.915C861.894 715.106 861.894 715.106 863 714ZM865 731C863.866 734.935 862.745 738.873 861.625 742.812C861.149 744.463 861.149 744.463 860.664 746.146C860.355 747.239 860.045 748.331 859.727 749.457C859.41 750.554 859.093 751.65 858.767 752.78C857.918 755.936 857.918 755.936 857.817 758.995C857.629 762.082 857.335 764.199 856 767C851.733 770.489 847.028 772.731 842.062 775.062C840.746 775.714 839.432 776.37 838.119 777.029C835.715 778.234 833.305 779.409 830.879 780.571C827.908 781.97 827.908 781.97 825 784C825 784.66 825 785.32 825 786C826.437 786.329 826.437 786.329 827.902 786.664C856.829 793.462 856.829 793.462 861.691 799.664C863.482 802.884 864.488 806.268 865.368 809.833C866.526 813.803 868.575 817.357 870.5 821C871.181 822.352 871.858 823.706 872.531 825.062C873.016 826.032 873.501 827.001 874 828C876.764 825.236 877.294 822.043 878.312 818.375C878.536 817.622 878.759 816.868 878.989 816.092C880.117 812.268 881.137 808.467 881.945 804.562C884.232 794.38 884.232 794.38 888.867 790.762C891.851 789.29 894.838 788.032 897.949 786.855C901.768 785.263 905.299 783.133 908.875 781.062C910.247 780.282 911.619 779.502 912.992 778.723C913.985 778.154 914.977 777.586 916 777C913.5 774.5 911.391 773.958 908.039 772.836C906.845 772.436 905.652 772.037 904.422 771.625C903.169 771.213 901.916 770.8 900.625 770.375C899.38 769.955 898.135 769.535 896.852 769.102C895.655 768.705 894.459 768.307 893.227 767.898C892.129 767.534 891.032 767.17 889.901 766.794C886.858 765.824 886.858 765.824 883 766C882.758 765.201 882.515 764.402 882.266 763.578C880.701 759.156 878.766 754.982 876.75 750.75C876.351 749.91 875.952 749.071 875.541 748.206C871.27 739.317 871.27 739.317 866 731C865.67 731 865.34 731 865 731Z" fill="#677231"/>
<path d="M47 288C48.32 288 49.64 288 51 288C51.2797 288.877 51.5595 289.755 51.8477 290.659C56.5217 307.91 56.5217 307.91 67.0078 321.223C70.9015 322.894 74.8134 323.471 79 324C81.011 324.589 83.0136 325.208 85 325.875C86.3316 326.256 87.6642 326.634 89 327C88.7617 329.383 88.7617 329.383 88 332C86.207 333.117 86.207 333.117 83.8125 333.875C82.9179 334.206 82.0233 334.538 81.1016 334.879C78.8698 335.686 76.635 336.484 74.3984 337.277C69.0877 339.378 65.0062 341.197 62.1016 346.402C60.6975 350.19 59.8419 354.054 59 358C58.4485 360.065 57.8874 362.128 57.3125 364.188C57.1024 365.027 56.8923 365.866 56.6758 366.73C56.0036 368.988 55.1175 370.931 54 373C52.1545 372.841 52.1545 372.841 50 372C48.6755 369.639 48.6755 369.639 47.5273 366.539C47.1026 365.428 46.6779 364.317 46.2402 363.172C45.8103 362.001 45.3804 360.831 44.9375 359.625C44.0787 357.323 43.2131 355.023 42.3398 352.727C41.7732 351.189 41.7732 351.189 41.1951 349.62C38.7786 344.323 35.2573 343.049 30.0508 341.051C24.4391 339.118 18.7268 337.551 13 336C12.67 334.35 12.34 332.7 12 331C12.5139 330.773 13.0277 330.547 13.5571 330.313C15.9138 329.273 18.2694 328.23 20.625 327.188C21.4332 326.831 22.2415 326.475 23.0742 326.107C26.5816 324.553 30.0408 322.979 33.4609 321.238C36 320 36 320 38 320C38.3809 318.424 38.3809 318.424 38.7695 316.816C40.4103 310.099 42.042 303.436 44.3398 296.906C45.3559 293.972 46.1724 290.992 47 288Z" fill="#CACFAF"/>
<path d="M318.988 121.066C326.286 125.13 331.352 131.067 334 139C335.136 147.456 333.715 153.92 329 161C324.6 166.499 318.887 170.392 311.879 171.488C303.352 171.84 296.596 170.1 290.156 164.355C283.684 157.329 282.36 150.861 282.59 141.445C283.485 133.922 287.336 129.005 293.059 124.289C300.951 119.048 309.927 117.833 318.988 121.066Z" fill="#B4BC7E"/>
<path d="M866 99C868.911 102.052 870.407 104.855 871.699 108.801C875.215 119.276 875.215 119.276 882.91 126.758C890.011 129.763 897.435 131.58 905 133C905 133.66 905 134.32 905 135C901.379 137.007 897.752 139.004 894.125 141C893.092 141.572 892.06 142.145 890.996 142.734C890.01 143.276 889.024 143.817 888.008 144.375C887.097 144.878 886.185 145.38 885.247 145.898C883 147 883 147 881 147C880.724 148.277 880.448 149.555 880.164 150.871C879.031 155.971 877.722 161.016 876.375 166.062C876.146 166.928 875.916 167.794 875.68 168.686C875.121 170.791 874.561 172.895 874 175C871.127 173.563 870.906 171.747 869.715 168.793C869.266 167.731 868.816 166.67 868.354 165.576C867.418 163.337 866.501 161.089 865.604 158.834C862.667 151.797 862.667 151.797 856.727 147.441C855.163 146.922 853.587 146.442 852 146C850.393 145.436 848.788 144.868 847.184 144.297C845.603 143.777 844.021 143.261 842.438 142.75C841.62 142.482 840.802 142.214 839.959 141.938C837.974 141.287 835.987 140.643 834 140C835.681 136.638 839.417 135.641 842.688 134.062C843.396 133.715 844.104 133.368 844.834 133.01C845.532 132.668 846.23 132.325 846.949 131.973C847.636 131.633 848.322 131.294 849.029 130.945C850.79 130.101 852.587 129.334 854.387 128.578C857.661 126.601 858.11 125.327 859.125 121.688C859.433 120.632 859.741 119.576 860.059 118.488C860.369 117.337 860.68 116.186 861 115C861.728 112.458 862.457 109.916 863.188 107.375C863.511 106.207 863.835 105.039 864.168 103.836C865 101 865 101 866 99Z" fill="#D7DBBD"/>
<path d="M227.609 769.676C235.87 774.252 240.067 780.201 243 789C244 797.935 241.833 805.649 236.375 812.812C231.783 817.78 224.379 821.49 217.652 822.273C209.351 822.584 203.17 820.754 196.926 815.133C189.953 807.619 188.153 800.076 188.527 789.957C189.441 782.31 193.015 777.308 198.937 772.562C208.449 766.216 217.094 764.964 227.609 769.676ZM197.25 784.062C194.367 788.531 194.521 793.855 195 799C197.154 805.801 201.125 810.083 207 814C212.867 815.956 219.595 816.006 225.312 813.5C230.503 810.52 234.125 805.626 236 800C236.726 793 236.686 787.412 232.43 781.617C228.885 777.608 224.86 774.337 219.449 773.699C209.145 773.655 204.032 776.07 197.25 784.062Z" fill="#667232"/>
<path d="M652.105 346.648C656.599 348.97 660.072 352.338 662 357C662.949 363.216 662.647 368.718 659 374C654.559 379.281 650.88 380.675 644.125 381.437C639.207 381.296 635.685 379.138 632 376C627.734 370.531 626.302 365.91 627 359C630.718 348.065 641.242 343.303 652.105 346.648Z" fill="#9FAA62"/>
<path d="M318.988 121.066C326.286 125.13 331.352 131.067 334 139C335.136 147.456 333.715 153.92 329 161C324.6 166.499 318.887 170.392 311.879 171.488C303.352 171.84 296.596 170.1 290.156 164.355C283.684 157.329 282.36 150.861 282.59 141.445C283.485 133.922 287.336 129.005 293.059 124.289C300.951 119.048 309.927 117.833 318.988 121.066ZM293 133C290.079 137.272 288.254 141.561 288.547 146.852C289.751 152.56 292.475 157.511 296.625 161.562C302.076 164.862 307.816 164.435 314 164C320.305 162.015 324.259 157.166 327.375 151.5C328.942 145.23 327.943 140.677 325 135C321.844 130.211 318.409 128.21 313.062 126.312C304.818 125.063 298.958 127.198 293 133Z" fill="#646F30"/>
<path d="M832.105 400.664C836.406 402.52 839.623 404.905 842.156 408.875C844.303 414.281 843.676 419.973 841.875 425.375C838.967 429.447 835.84 432.387 831 434C826.081 434.396 821.338 434.58 817 432C812.875 428.48 810.258 425.935 809.762 420.293C809.649 415.563 809.589 411.942 811.5 407.563C817.55 401.361 823.48 397.944 832.105 400.664Z" fill="#6D7839"/>
<path d="M496 307C535.27 307 574.54 307 615 307C617 312 617 312 617 315C576.41 315 535.82 315 494 315C494.66 312.36 495.32 309.72 496 307Z" fill="#889348"/>
<path d="M49 304C49.66 304 50.32 304 51 304C51.4892 305.429 51.4892 305.429 51.9883 306.887C52.4294 308.154 52.8708 309.421 53.3125 310.688C53.7418 311.929 54.171 313.17 54.6133 314.449C56.5241 320.081 56.5241 320.081 60.7371 323.947C62.8643 324.83 65.0008 325.589 67.1875 326.312C67.9371 326.576 68.6867 326.84 69.459 327.111C71.3006 327.756 73.1496 328.38 75 329C75 329.66 75 330.32 75 331C73.3197 331.744 73.3197 331.744 71.6055 332.504C70.1323 333.189 68.6596 333.875 67.1875 334.562C66.4495 334.885 65.7115 335.208 64.9512 335.541C60.9811 337.427 59.3024 338.46 57.0938 342.406C56.7328 343.592 56.3719 344.778 56 346C55.6868 347.02 55.3735 348.039 55.0508 349.09C54.8071 350.03 54.5635 350.969 54.3125 351.938C54.0611 352.895 53.8098 353.853 53.5508 354.84C53.369 355.553 53.1873 356.266 53 357C52.34 357 51.68 357 51 357C50.5379 355.264 50.5379 355.264 50.0664 353.492C47.6306 345.025 47.6306 345.025 42 338.606C37.204 336.323 32.1853 335.067 27 334C27 333.01 27 332.02 27 331C28.097 330.631 29.194 330.263 30.3242 329.883C38.4356 326.911 38.4356 326.911 44.2324 320.871C46.1994 315.728 47.0933 310.412 48 305C48.33 304.67 48.66 304.34 49 304Z" fill="#F4F4EB"/>
<path d="M482 433C484 435 484 435 484.039 437.379C482.549 441.138 479.817 442.212 476.375 443.938C475.087 444.632 473.802 445.331 472.52 446.035C471.905 446.372 471.291 446.708 470.659 447.055C459.192 453.587 453.753 465.434 449.875 477.5C449 480 449 480 447 482C444.065 481.633 443.136 481.136 441 479C441.482 465.737 448.378 452.641 457.977 443.629C464.902 438.054 472.758 432.179 482 433Z" fill="#F8F8F5"/>
<path d="M828.621 406.531C831.932 407.184 833.747 408.529 836 411C837.597 414.194 837.374 417.525 837 421C835.765 423.841 834.745 425.421 832.313 427.313C828.848 428.343 825.549 428.591 822 428C819.19 426.206 817.491 424.981 816 422C815.369 417.492 815.25 413.31 817.875 409.438C821.698 406.456 823.886 406.249 828.621 406.531Z" fill="#F2F3E7"/>
<path d="M371.785 288.504C372.523 288.502 373.261 288.501 374.022 288.499C375.576 288.501 377.13 288.513 378.684 288.533C381.059 288.562 383.432 288.554 385.807 288.541C387.32 288.547 388.834 288.556 390.348 288.566C391.409 288.562 391.409 288.562 392.491 288.558C395.582 288.617 397.728 288.849 400.454 290.358C402 292 402 292 402.391 294.699C402.344 295.685 402.298 296.671 402.25 297.687C402.214 298.681 402.178 299.675 402.141 300.699C402.094 301.458 402.048 302.218 402 303C401.505 302.01 401.505 302.01 401 301C399.35 300.293 397.679 299.634 396 299C394.989 298.484 393.979 297.969 392.938 297.437C386.4 294.238 379.139 293.731 372 295C369.101 297.096 367.085 299.235 364.867 302.031C364.251 302.681 363.635 303.331 363 304C361.68 304 360.36 304 359 304C358.864 302.252 358.768 300.501 358.688 298.75C358.629 297.775 358.571 296.801 358.512 295.797C359 293 359 293 361.044 290.856C364.69 288.567 367.614 288.437 371.785 288.504Z" fill="#8F9B51"/>
<path d="M880 808C879.353 814.95 877.14 821.382 875 828C871.714 826.357 870.845 822.84 869.375 819.625C869.05 818.939 868.725 818.253 868.391 817.547C866.998 814.538 866 812.354 866 809C870.672 807.794 875.215 807.906 880 808Z" fill="#BEC58C"/>
<path d="M866 99C869.356 102.819 871.327 106.246 873 111C872.67 111.99 872.34 112.98 872 114C872 113.34 872 112.68 872 112C871.34 111.67 870.68 111.34 870 111C869.269 108.686 868.599 106.352 868 104C867.01 104.33 866.02 104.66 865 105C865.33 103.02 865.66 101.04 866 99Z" fill="#E0E4CB"/>
</svg>
